<?xml version="1.0" encoding="utf-8"?>
<!-- Generator: Adobe Illustrator 24.1.0, SVG Export Plug-In . SVG Version: 6.00 Build 0)  -->
<svg version="1.1" id="Capa_1" xmlns="http://www.w3.org/2000/svg" xmlns:xlink="http://www.w3.org/1999/xlink" x="0px" y="0px"
	 viewBox="0 0 200 203" style="enable-background:new 0 0 200 203;" xml:space="preserve">
<style type="text/css">
	.st0{display:none;}
	.st1{display:inline;fill:#483E39;}
	.st2{fill:#483E39;}
	.st3{display:inline;}
</style>
<g class="st0">
	<path id="XMLID_1_" class="st1" d="M87.3,72.9c25.1-8.1,61.2-16.1,87.4-14c1.7,0.1,3.3,1,4.4,2.3l8.8,10.6c2.3,2.7,1.9,6.7-0.8,9
		c-2.7,2.3-6.7,1.9-9-0.8l-7.1-8.5c-19.2-0.9-48.2,3.8-75.8,12.3l-3.5,44.7c-0.2,2.1-1.4,4-3.2,5c-16.7,9.5-31.9,24.3-39.3,38
		c1.2,8.9,5.2,18.6,11.4,27.6c1,1.4,1.3,3.2,1,4.9s-1.3,3.2-2.8,4.1l-11.7,7.6c-1.1,0.7-2.3,1-3.5,1c-2.1,0-4.1-1-5.4-2.9
		c-1.9-3-1.1-6.9,1.9-8.8l6.4-4.2c-4.6-7.8-9.2-18.2-10.3-30c-0.1-1.2,0.1-2.4,0.6-3.4c9.2-18.6,27.4-34.2,42.3-43.3l3.6-45.7
		C83.1,75.9,84.8,73.7,87.3,72.9z M198.5,149.8l-8.8-10.6c-2.1-2.6-5.9-3-8.6-1.1c-15,10.7-35.3,18.7-52.1,20.7
		c-9.3-3.3-18.6-9.2-26.4-16.7c-2.5-2.4-6.6-2.4-9,0.2c-2.4,2.5-2.4,6.6,0.2,9c6.7,6.4,17.8,15.1,32.5,20c0.6,0.2,1.3,0.3,2,0.3
		c0.2,0,0.4,0,0.6,0c20.6-2.1,40.9-11.1,54.7-19.8l5.1,6.2c2.3,2.7,6.3,3.1,9,0.8C200.4,156.5,200.8,152.5,198.5,149.8z M69.1,25
		C71.7,11.7,82.4,1.7,95.9,0c1.3-0.2,2.6,0.1,3.8,0.7c11.9,6.5,18.2,19.8,15.7,33.1c-2.6,13.3-13.3,23.4-26.8,25c-0.3,0-0.5,0-0.8,0
		c-1.1,0-2.1-0.3-3-0.8C72.9,51.7,66.6,38.4,69.1,25z M89.1,45.9c7-1.6,12.4-7.2,13.8-14.4c1.4-7.2-1.6-14.3-7.5-18.4
		c-7,1.6-12.4,7.2-13.8,14.4C80.3,34.6,83.2,41.8,89.1,45.9z M68.8,81.6c2.4,0,4.6-1.3,5.7-3.6c1.5-3.2,0.2-7-3-8.5
		C44.2,56.2,21.7,37.1,13.3,20.2l4-10.1c1.3-3.3-0.3-7-3.6-8.3c-3.3-1.3-7,0.3-8.3,3.6L0.4,18c-0.6,1.6-0.6,3.3,0.1,4.8
		c10.3,24.4,40.6,46,65.5,58.1C66.9,81.4,67.9,81.6,68.8,81.6z"/>
</g>
<g>
	<path id="XMLID_2_" class="st2" d="M116.8,37.7c-1.3,5.2-0.6,10.4,2,14.1c0.8,1.1,2.1,1.8,3.4,1.9c0.4,0,0.7,0,1.1,0
		c4.2,0,8.5-2,12-5.5c3.9,3.7,8.7,5.8,13.2,5.3c1.4-0.1,2.6-0.9,3.4-2c2.6-3.7,3.2-8.9,1.8-14.1c5.2-1.5,9.3-4.7,11.2-8.8
		c0.6-1.3,0.6-2.7,0-3.9c-1.9-4.1-6.1-7.2-11.3-8.6c1.3-5.2,0.6-10.4-2-14.1c-0.8-1.1-2.1-1.8-3.4-1.9c-4.5-0.4-9.3,1.7-13.1,5.5
		c-3.9-3.7-8.7-5.8-13.2-5.3c-1.4,0.1-2.6,0.9-3.4,2c-2.6,3.7-3.2,8.9-1.8,14.1c-5.2,1.5-9.3,4.7-11.2,8.8c-0.6,1.3-0.6,2.7,0,3.9
		C107.4,33.1,111.6,36.2,116.8,37.7z M123,25l0.3,0c0.9,0,1.8-0.2,2.5-0.7c2.3-1.5,2.8-4.4,1.6-6.5l0,0c-1.6-2.8-2.1-5.5-1.9-7.6
		c1.9,0.8,4,2.6,5.7,5.4l0,0.1c0.8,1.5,2.4,2.4,4.1,2.4H135c1.7,0,3.3-0.9,4.1-2.4l0.1-0.2c1.6-2.8,3.8-4.7,5.7-5.6
		c0.2,2.1-0.3,4.9-1.9,7.8l-0.1,0.1c-0.4,0.8-0.7,1.7-0.6,2.6c0.2,2.8,2.4,4.7,5,4.7l0.1,0c3,0,5.4,0.8,7,2c-1.6,1.1-4,2-7,2l-0.3,0
		c-0.9,0-1.8,0.2-2.5,0.7c-2.3,1.5-2.8,4.4-1.6,6.5l0,0.1c1.6,2.8,2.1,5.5,1.9,7.6c-1.9-0.8-4.1-2.7-5.7-5.4l-0.1-0.1
		c-0.9-1.5-2.4-2.3-4.1-2.3c0,0,0.2,0,0.2,0c-1.7,0-3.4,1-4.2,2.5l0,0c-1.6,2.8-3.8,4.7-5.7,5.6c-0.2-2.1,0.3-4.9,1.9-7.8l0.1-0.1
		c0.4-0.8,0.7-1.6,0.6-2.5c-0.2-2.8-2.4-4.7-4.9-4.7c0,0-0.1,0-0.1,0l-0.1,0c-3,0-5.4-0.8-7-2C117.6,25.9,120,25,123,25z M100,116.2
		c-22.1,0-37.9,1.5-47.1,3c9.2,1.6,25,3,47.1,3c23.4,0,39.8-1.7,48.7-3.3c-1.3-1.1-2-2.9-1.6-4.6c0.6-2.5,3.1-4.2,5.6-3.6
		c4.2,0.9,11.9,2.6,11.9,8.5c0,5.1-5.8,6.9-8,7.5c-3.3,1-7.9,1.9-13.6,2.6c-11.5,1.5-26.8,2.3-43,2.3c-16.2,0-31.5-0.8-43-2.3
		c-5.8-0.7-10.3-1.6-13.6-2.6c-2.2-0.7-8-2.5-8-7.5s5.8-6.9,8-7.5c3.3-1,7.9-1.9,13.6-2.6c11.5-1.5,26.8-2.3,43-2.3
		c2.6,0,4.7,2.1,4.7,4.7S102.6,116.2,100,116.2z M200,119c0,22.6-10.5,43.9-29.6,59.8c-9.5,7.9-20.5,14-32.5,18.1
		c0.2,0.5,0.2,1,0.2,1.5c0,2.6-4.7,4.6-4.7,4.6h-32.9l-0.5,1l-0.5-1H66.6c0,0-4.7-2-4.7-4.6c0-0.5,0.1-1.1,0.3-1.5
		c-2.9-1-5.8-2.1-8.6-3.4c-2.4-1.1-3.5-3.8-2.4-6.2c1.1-2.4,3.8-3.5,6.2-2.4c12.9,5.7,27.5,8.7,42.2,9.2h1
		c43.9-0.5,80.5-26.6,88.5-61c-5.1,2.8-11.9,5.3-20.4,7.4c-18.4,4.6-42.7,7.1-68.5,7.1c-25.8,0-50.2-2.5-68.5-7.1
		c-8.5-2.1-15.4-4.6-20.5-7.4c1.3,5.8,3.5,11.5,6.6,17c1.3,2.3,0.4,5.2-1.8,6.4c-2.3,1.3-5.2,0.4-6.4-1.8C3.1,143.4,0,131.4,0,119
		c0,0,0,0,0,0c0-9,10.6-16.2,31.5-21.4c18.4-4.6,42.7-7.1,68.5-7.1c2.6,0,4.7,2.1,4.7,4.7s-2.1,4.7-4.7,4.7
		c-25.1,0-48.6,2.4-66.2,6.8c-20,5-24.3,10.5-24.3,12.3c0,1.7,4.4,7.3,24.3,12.3c17.6,4.4,41.2,6.8,66.2,6.8s48.6-2.4,66.2-6.8
		c20-5,24.3-10.5,24.3-12.3c0-2.9-8.4-9.1-30.9-13.8c-2.6-0.5-4.2-3-3.7-5.6c0.5-2.6,3-4.2,5.6-3.7C187.1,101.2,200,109,200,119z
		 M116.8,117c0.8,0.4,1.8,0.6,3,0.6c4.1,0,9.5-2,10.2-2.3c4.9-1.9,11.6-5.5,15.7-12.2c7.8-12.9,7.2-27-1.4-32.2
		c-4.4-2.7-10.3-2.5-16,0.6c-5,2.7-9.7,7.3-13.2,13.1c-6.1,10.1-3.3,22.3-2.3,25.8C114,114.9,115.2,116.3,116.8,117z M123.1,89.5
		c2.6-4.3,6.1-7.8,9.6-9.6c1.7-0.9,3.3-1.4,4.6-1.4c0.8,0,1.5,0.2,2.1,0.5c3.4,2.1,3.4,10.7-1.8,19.2c-3.7,6-11.7,8.8-15.8,9.6
		C120.6,103.9,119.4,95.7,123.1,89.5z M51.4,161.7c-0.8-1.5-2.3-2.7-6.8-3.8c-3.5-0.9-15.8-3.2-25.7,3.4C13.3,165,8.9,169.9,6.4,175
		c-2.8,5.9-2.8,11.7,0.1,16c2.7,4,7.6,6.3,13.5,6.3c0.4,0,0.8,0,1.2,0c5.7-0.3,11.9-2.5,17.5-6.2c6.5-4.3,9.8-11.2,11.5-16.2
		C50.5,173.9,53.3,165.2,51.4,161.7z M33.5,183.2c-4.2,2.8-8.8,4.5-12.8,4.6c-3.1,0.2-5.4-0.6-6.4-2.1c-1-1.5-0.8-3.9,0.6-6.7
		c1.7-3.6,5.1-7.2,9.2-10c3.4-2.2,7.5-2.9,11.1-2.9c2.8,0,5.4,0.4,7.2,0.9C41.8,171.2,39.4,179.3,33.5,183.2z M141.5,172.2
		c-1.2-2.3-0.2-5.2,2.1-6.3c7.9-3.9,14.4-9.4,19.2-16.5c1.5-2.1,4.4-2.7,6.6-1.2c2.1,1.5,2.7,4.4,1.2,6.6
		c-5.8,8.4-13.5,14.9-22.8,19.6c-0.7,0.3-1.4,0.5-2.1,0.5C144,174.8,142.3,173.8,141.5,172.2z M72.6,65.1c4.7,5.9,11,9,15.5,10.7
		c2.4,0.9,6,2,9,2c1.3,0,2.5-0.2,3.4-0.8c2-1.3,2.3-3.4,2.5-4.3c0.6-3.7,0.5-16.4-7.4-26.2c-9.8-12.1-21.7-17-28.4-11.6
		c-2.1,1.7-5.3,5.8-3.1,14.4C65.5,54.4,68.5,60,72.6,65.1z M73.2,42.3c0.1-0.1,0.3-0.1,0.6-0.1c2.1,0,8.1,2.4,14.5,10.3
		c3.9,4.8,5.2,11.2,5.5,15.3c-3.9-1.1-9.9-3.7-13.8-8.5C72.7,50.2,72.3,43.2,73.2,42.3z"/>
</g>
<g class="st0">
	<path id="XMLID_3_" class="st3" d="M61.1,205H32.3c-3.7,0-5.9-3.3-6.2-6.6L14.2,57H107l-4.5,53.8c-0.2,2.8,1.8,5.3,4.7,5.5
		c2.8,0.2,5.3-1.8,5.5-4.7l4.6-54.8c2.2-0.6,3.8-2.6,3.8-4.9V29.1c0-2.8-2.3-5.1-5.1-5.1H85V5.1C85,2.3,82.7,0,79.9,0H41.1
		C38.3,0,36,2.3,36,5.1V24H5.1C2.3,24,0,26.3,0,29.1v25.7c0,2.5,1.8,4.6,4.2,4.9l11.7,139.6c0.8,8.9,7.7,15.7,16.1,15.7h28.8
		c2.6,0,5-1.9,5.2-4.6C66.3,207.5,64,205,61.1,205z M46,10h29v14H46V10z M10,34h101v14H10V34z M83.6,90.8c-2-2-2-5.2,0-7.2l1.9-1.9
		c2-2,5.2-2,7.2,0c2,2,2,5.2,0,7.2l-1.9,1.9c-1,1-2.3,1.5-3.6,1.5C85.9,92.3,84.6,91.8,83.6,90.8z M71.8,106.5c-2-2-2-5.2,0-7.2
		c2-2,5.2-2,7.2,0l1.9,1.9c2,2,2,5.2,0,7.2c-1,1-2.3,1.5-3.6,1.5c-1.3,0-2.6-0.5-3.6-1.5L71.8,106.5z M190.2,92.9l1-25.6
		c0.1-1.4-0.5-2.7-1.4-3.8c-1-1-2.3-1.6-3.7-1.6h-22.9c-2.8,0-5.1,2.3-5.1,5.1V85c-10.2,22.7-30.6,39.7-54.8,45.6
		c-26.3,6.4-36.5,2.6-48.1-3.4c-9-4.6-13.8,0.2-15.1,1.7c-5,6.3-2.9,18.8,4.8,28c1.6,1.9,4.4,2.7,6.6,1.4c2.9-1.6,3.5-5.4,1.5-7.8
		c-5.5-6.6-5.8-13.6-4.9-15.1c0.3,0,1.1,0.1,2.4,0.8c12.7,6.6,25.6,11.4,55.2,4.3c23.7-5.7,44.2-20.9,56.7-41.6
		c0.3,0,0.6,0.1,0.9,0.1h2.4c-4.7,27.9-23.5,51.2-50.2,61.7c-25.2,9.8-35.8,7.5-48.1,3.1c-9.5-3.4-13.7,2-14.7,3.8
		c-4.2,7-0.2,19.2,8.7,27.3c15.3,13.8,35.2,21.4,55.8,21.4c46,0,83.4-37.4,83.4-83.4C200.4,119,196.9,105.1,190.2,92.9z M168,86.5
		c0-0.1,0-0.1,0-0.2V73h12.1l-0.6,16h-8.3c0,0-0.1,0-0.1,0h-3L168,86.5L168,86.5z M117.4,205.1c-18,0-35.2-6.6-48.5-18.6
		c-6.3-5.7-7.5-12.6-6.8-14.2c0.3,0,1.1,0,2.5,0.5c13.3,4.8,26.7,7.8,54.8-3.2c15.3-6,28.7-16.1,38.8-29.2
		c9.3-12.1,15.3-26.3,17.6-41.3h5.8c5.4,10.3,8.3,21.9,8.3,33.7C189.8,172.6,157.3,205.1,117.4,205.1z M72.2,79.3
		c-1,1-2.3,1.5-3.6,1.5s-2.6-0.5-3.6-1.5c-2-2-2-5.2,0-7.2l1.9-1.9c2-2,5.2-2,7.2,0c2,2,2,5.2,0,7.2L72.2,79.3z"/>
</g>
</svg>
