<?xml version="1.0" encoding="utf-8"?>
<!-- Generator: Adobe Illustrator 24.1.0, SVG Export Plug-In . SVG Version: 6.00 Build 0)  -->
<svg version="1.1" id="Capa_1" xmlns="http://www.w3.org/2000/svg" xmlns:xlink="http://www.w3.org/1999/xlink" x="0px" y="0px"
	 viewBox="0 0 200 200" style="enable-background:new 0 0 200 200;" xml:space="preserve">
<style type="text/css">
	.st0{fill:#EE6B5B;}
	.st1{fill:#FFDCD4;}
</style>
<g>
	<path class="st0" d="M199.58,99.52c0.36,53.99-42.86,98.47-97.03,99.71C44.82,200.55,0.96,154.27,0.42,100.71
		C-0.12,46.7,42.8,0.17,99.77,0C156.75-0.16,200,46.29,199.58,99.52z M76.04,90.04c-4.4-1.44-6.86-4.77-6.95-9.52
		c-0.13-7.1-0.04-14.21-0.08-21.32c-0.01-1.26-0.06-2.56-0.37-3.78c-0.56-2.21-2.36-3.38-4.5-3.16c-1.99,0.21-3.31,1.62-3.57,3.83
		c-0.06,0.52-0.05,1.06-0.05,1.59c0,7.53-0.09,15.06,0.03,22.59c0.13,8.5,4.42,14.36,11.95,18c1.03,0.5,2.13,0.88,3.54,1.45
		c0,1.26,0,2.51,0,3.76c0,12.52-0.01,25.03,0.01,37.55c0.01,3.85,1.52,6,4.14,6.07c2.82,0.07,4.35-2.04,4.35-6.09
		c0.01-12.62,0-25.25,0-37.87c0-1.14,0-2.28,0-3.35c0.71-0.33,1.08-0.54,1.46-0.68c9.37-3.34,14.35-10.34,14.37-20.23
		c0.01-6.79,0.01-13.58-0.01-20.37c0-1.05,0.01-2.15-0.24-3.15c-0.53-2.08-2.16-3.2-4.23-3.13c-2.11,0.08-3.34,1.29-3.84,3.2
		c-0.26,1-0.23,2.1-0.24,3.16c-0.02,7.21,0.04,14.43-0.03,21.64c-0.05,4.8-2.78,8.54-7.25,9.89c0-1.23,0-2.37,0-3.51
		c0-9.33,0-18.67,0-28c0-0.95,0.05-1.92-0.09-2.86c-0.29-1.95-1.72-3.31-3.58-3.49c-2.04-0.19-3.6,0.64-4.31,2.53
		c-0.43,1.15-0.51,2.48-0.52,3.74c-0.04,9.33-0.02,18.67-0.02,28C76.04,87.66,76.04,88.79,76.04,90.04z M120.13,130.48
		c1.93-1.77,3.88-3.27,5.49-5.07c14.4-15.99,17.76-34.16,10.31-54.28c-2.22-6.01-5.57-11.45-10.09-16.04
		c-3.92-3.97-9.89-3.76-12.7,0.58c-1.07,1.64-1.5,3.97-1.51,5.98c-0.1,26.4-0.06,52.8-0.06,79.19c0,0.53-0.02,1.06,0.01,1.59
		c0.17,2.84,1.79,4.65,4.18,4.68c2.3,0.03,4.07-1.84,4.33-4.61c0.07-0.74,0.04-1.48,0.04-2.22
		C120.13,136.99,120.13,133.71,120.13,130.48z"/>
	<path class="st1" d="M76.04,90.04c0-1.25,0-2.38,0-3.5c0-9.33-0.02-18.67,0.02-28c0.01-1.25,0.09-2.58,0.52-3.74
		c0.7-1.89,2.27-2.73,4.31-2.53c1.86,0.18,3.29,1.54,3.58,3.49c0.14,0.94,0.08,1.91,0.09,2.86c0.01,9.33,0,18.67,0,28
		c0,1.14,0,2.27,0,3.51c4.47-1.35,7.2-5.09,7.25-9.89c0.07-7.21,0.01-14.43,0.03-21.64c0-1.06-0.03-2.15,0.24-3.16
		c0.5-1.91,1.73-3.12,3.84-3.2c2.07-0.07,3.7,1.05,4.23,3.13c0.26,1.01,0.24,2.1,0.24,3.15c0.02,6.79,0.02,13.58,0.01,20.37
		c-0.02,9.89-5,16.89-14.37,20.23c-0.39,0.14-0.75,0.35-1.46,0.68c0,1.07,0,2.21,0,3.35c0,12.62,0.01,25.25,0,37.87
		c0,4.05-1.53,6.16-4.35,6.09c-2.63-0.07-4.14-2.22-4.14-6.07c-0.02-12.52-0.01-25.03-0.01-37.55c0-1.25,0-2.5,0-3.76
		c-1.41-0.57-2.5-0.95-3.54-1.45c-7.53-3.64-11.82-9.5-11.95-18c-0.12-7.53-0.03-15.06-0.03-22.59c0-0.53-0.01-1.06,0.05-1.59
		c0.26-2.21,1.58-3.61,3.57-3.83c2.14-0.23,3.94,0.94,4.5,3.16C68.95,56.64,69,57.94,69,59.2c0.04,7.11-0.05,14.22,0.08,21.32
		C69.17,85.28,71.63,88.6,76.04,90.04z"/>
	<path class="st1" d="M120.13,130.48c0,3.24,0,6.52,0,9.8c0,0.74,0.03,1.49-0.04,2.22c-0.26,2.77-2.03,4.64-4.33,4.61
		c-2.39-0.03-4.01-1.84-4.18-4.68c-0.03-0.53-0.01-1.06-0.01-1.59c0-26.4-0.03-52.8,0.06-79.19c0.01-2.02,0.44-4.34,1.51-5.98
		c2.82-4.33,8.79-4.54,12.7-0.58c4.53,4.58,7.87,10.03,10.09,16.04c7.44,20.12,4.08,38.29-10.31,54.28
		C124,127.2,122.06,128.71,120.13,130.48z M120.26,118.24c15.66-15.71,13.26-42.11,0-56.09C120.26,80.78,120.26,99.28,120.26,118.24
		z"/>
	<path class="st0" d="M120.26,118.24c0-18.96,0-37.46,0-56.09C133.52,76.14,135.92,102.53,120.26,118.24z"/>
</g>
</svg>
