<?xml version="1.0" encoding="utf-8"?>
<!-- Generator: Adobe Illustrator 24.1.0, SVG Export Plug-In . SVG Version: 6.00 Build 0)  -->
<svg version="1.1" id="Capa_1" xmlns="http://www.w3.org/2000/svg" xmlns:xlink="http://www.w3.org/1999/xlink" x="0px" y="0px"
	 viewBox="0 0 44.01 44" style="enable-background:new 0 0 44.01 44;" xml:space="preserve">
<style type="text/css">
	.st0{fill:#FFFFFF;}
</style>
<g>
	<g>
		<path class="st0" d="M21.65,10.5c-6.16,0-11.26,5.02-11.26,11.26s5.02,11.26,11.26,11.26s11.26-5.1,11.26-11.26
			S27.81,10.5,21.65,10.5z M21.65,28.98c-3.96,0-7.22-3.26-7.22-7.22s3.26-7.22,7.22-7.22s7.22,3.26,7.22,7.22
			S25.61,28.98,21.65,28.98z"/>
		<circle class="st0" cx="33.35" cy="10.23" r="2.55"/>
		<path class="st0" d="M40.45,3.64C38.15,1.24,34.86,0,31.14,0H12.76C5.71,0,0,5.71,0,12.76v18.29c0,3.81,1.24,7.1,3.73,9.49
			C6.13,42.85,9.32,44,12.96,44h18.1c3.81,0,7.01-1.24,9.31-3.46c2.4-2.31,3.64-5.59,3.64-9.4V12.86C44,9.14,42.76,5.94,40.45,3.64z
			 M39.6,30.97c0,2.7-0.96,4.88-2.52,6.36c-1.56,1.48-3.73,2.27-6.33,2.27H13.08c-2.6,0-4.77-0.78-6.33-2.27
			c-1.56-1.57-2.34-3.75-2.34-6.45V13.03c0-2.61,0.78-4.79,2.34-6.36c1.47-1.48,3.73-2.27,6.33-2.27h17.86
			c2.6,0,4.77,0.78,6.33,2.35c1.47,1.57,2.34,3.75,2.34,6.27L39.6,30.97L39.6,30.97z"/>
	</g>
</g>
</svg>
