<?xml version="1.0" encoding="utf-8"?>
<!-- Generator: Adobe Illustrator 24.1.0, SVG Export Plug-In . SVG Version: 6.00 Build 0)  -->
<svg version="1.1" id="Capa_1" xmlns="http://www.w3.org/2000/svg" xmlns:xlink="http://www.w3.org/1999/xlink" x="0px" y="0px"
	 viewBox="0 0 200 200" style="enable-background:new 0 0 200 200;" xml:space="preserve">
<style type="text/css">
	.st0{fill:#ADC665;}
	.st1{fill:#F6FFD2;}
</style>
<g>
	<path class="st0" d="M99.55,199.11c-53.41,0.72-99.34-44.15-99.29-99.63C0.31,44.95,45.7-0.47,100.61,0
		c53.82,0.47,99.19,43.55,99.13,99.7C199.68,157.44,151.97,200.27,99.55,199.11z M99.94,146.97c0.7-0.22,1.24-0.3,1.69-0.54
		c14.09-7.51,26.36-17.07,34.36-31.24c10.69-18.96,5.84-42.16-11.28-54.94c-17.17-12.82-43.3-11.29-58.18,8.84
		c-9.92,13.43-10.61,28.3-3.83,43.42c4.51,10.06,12.04,17.73,20.66,24.35C88.54,140.83,93.95,144.48,99.94,146.97z"/>
	<path class="st1" d="M99.94,146.97c-5.99-2.49-11.4-6.13-16.58-10.11c-8.62-6.62-16.15-14.29-20.66-24.35
		c-6.78-15.12-6.09-29.99,3.83-43.42c14.88-20.13,41.01-21.66,58.18-8.84c17.12,12.78,21.97,35.97,11.28,54.94
		c-7.99,14.17-20.26,23.73-34.36,31.24C101.18,146.66,100.64,146.75,99.94,146.97z M99.84,111.7c10.35,0.01,18.35-7.68,18.43-17.72
		c0.08-10.2-8.05-18.53-18.11-18.53c-10.06,0-18.64,7.61-18.41,18.53C81.98,104.01,89.49,111.94,99.84,111.7z"/>
	<path class="st0" d="M99.84,111.7c-10.35,0.24-17.87-7.69-18.09-17.72c-0.24-10.92,8.35-18.53,18.41-18.53
		c10.06,0,18.19,8.33,18.11,18.53C118.19,104.02,110.19,111.71,99.84,111.7z"/>
</g>
</svg>
