<svg id="Capa_1" data-name="Capa 1" xmlns="http://www.w3.org/2000/svg" viewBox="0 0 100 46.52"><defs><style>.cls-1{fill:#fff;}</style></defs><path class="cls-1" d="M27.67,8.19c2.39-4.93-11-9.36-13.8,1.27a4.93,4.93,0,0,0,0,2.5c.5,1.85,1.81,2.22,3.12,3.06C19.69,16,18.62,20,16,19l-.25-.1-.39-.13c-4-1.21-9.09-.08-10.68,4.5-3.11,9,6.81,13.12,15.31,11.32-1.73,1.36-3.29,1-3.6,1.7-.93,2.12,4.48.69,5.55-.89a4,4,0,0,0,.82-1.21A14.54,14.54,0,0,0,27.3,32.5a1.6,1.6,0,0,0-.39-2.9,1.26,1.26,0,0,0-.33-.05c-2.43,0-2.91,2.73-3.82,4.61a24.29,24.29,0,0,1-2.77.4,7.53,7.53,0,0,0,1.8-2.15l0,.09.06-.12,0,0C27.92,17.91,41,39,12.2,37.77l.2,0c-17.57-.95-14.74-21.17-1.73-23.17-3.5-7,4.2-18.17,15.23-13.51,4,1.71,5.85,4.19,5.83,7.73,0,3.36-3.86,3.21-4.29.83A2.44,2.44,0,0,1,27.67,8.19Z" transform="translate(-0.06 -0.01)"/><path class="cls-1" d="M22.76,34.16a4,4,0,0,1-.82,1.21c-1.07,1.58-6.48,3-5.55.89.31-.73,1.87-.34,3.6-1.7A24.29,24.29,0,0,0,22.76,34.16Z" transform="translate(-0.06 -0.01)"/><path class="cls-1" d="M27.05,22.68A18,18,0,0,1,40.8,11.08a5.39,5.39,0,0,1,2.49.16c.8.25,1.47.69,1.35,1.68a1,1,0,0,1-.11.3C40.9,19,39.31,30.1,45.22,36c3.53,3.5-1.91,8.75-4.65,3.87-4.9-8.15-1.86-17-.74-25.61a.74.74,0,0,1,1.31-.37h0a.74.74,0,0,1-.62,1.2c-4.38-.22-8,2.86-9.24,8.84-.59,2.81-5,1.62-4.26-1.13Z" transform="translate(-0.06 -0.01)"/><path class="cls-1" d="M30.47,18.43c13.05,1.85,11.31,10.48,8.7,7.17-1-3.14-6.16-3.55-9-3.75A1.72,1.72,0,1,1,30.47,18.43Z" transform="translate(-0.06 -0.01)"/><path class="cls-1" d="M38.19,4c11.47-5.53,13.21,7,20.25,6.67,2-.26,3.31-2.44,3.83-4.4.83-3,4.7-1.87,4,1.14a5.23,5.23,0,0,1-2.08,2.71C53.28,18.37,47.89-.44,40.52,8.08l0,0c-2.38,2.15-4.89-.28-3.8-2.61A3,3,0,0,1,38.19,4Z" transform="translate(-0.06 -0.01)"/><path class="cls-1" d="M48.8,29.32c-4.18-6.54-2.55-15.45,2.66-20.86a.83.83,0,0,1,1.33.95c-2.85,4.9-3.2,11.83.91,15.92C56.29,28.55,51.42,32.51,48.8,29.32Z" transform="translate(-0.06 -0.01)"/><path class="cls-1" d="M59.5,31.18c2.61,5.94,13.44,9.22,16.58,1.16,1.27-3.27-2.17-5.63-5.16-5.82-3.56-.17-8.29,1-11.27-1.95-6.25-5.94,3.07-13.79,9.58-12.32,3.09.46,8.26,3.84,5.24,7.19-.94,1-3.06.56-4-1-1.38-2.36-4-2.37-5.72-1.87-2.28.6-4.54,5.2-1.33,6.64,1.91.76,4.48.39,6.53.51,4.5.16,9.07,1.94,9.59,6.83.36,10.12-13.93,11.19-20.61,7.08C49.64,33,56.89,27.65,59.5,31.18Z" transform="translate(-0.06 -0.01)"/><path class="cls-1" d="M98.05,8.48c-3.7,1.64-3.7,8.33-3.7,10.91-.14,5.62,1.63,11.3.11,16.87-2.71,9.43-10.6,13.16-19.32,7.79-3.21-2.43.66-7.15,3.7-4.51,5,5.89,10,3.66,12.55-2.1,1.83-4.17.78-8.8-.09-13.17-.12-.6-.25-1.19-.37-1.8-9.66,4-8.47-10-14.44-10.1C70.57,14.42,70.8,4.16,79,7.69c4.34,2.11,4.83,6.89,7,10.71.8,1.16,2.08,2.57,3.69,1.44a3.58,3.58,0,0,0,.7-.66s0,.07,0,.11,0,0,0,.06h0l.1-.35-.11.15v0a2.41,2.41,0,0,1,0-.38C89.47-5.09,105.59,4.79,98.05,8.48Z" transform="translate(-0.06 -0.01)"/><path class="cls-1" d="M15.73,27.38a.58.58,0,0,1-.31-.08.68.68,0,0,1-.3-.92,5.21,5.21,0,0,1,3-2.47,5.57,5.57,0,0,1,4.48.91.69.69,0,0,1,.22.95.68.68,0,0,1-.95.22,4.32,4.32,0,0,0-3.39-.75A3.93,3.93,0,0,0,16.34,27,.68.68,0,0,1,15.73,27.38Z" transform="translate(-0.06 -0.01)"/><path class="cls-1" d="M10.45,29.47a1,1,0,0,1-.91-.72l-.69-2.9a.94.94,0,1,1,1.82-.44l.7,2.91a.94.94,0,0,1-.7,1.13A.78.78,0,0,1,10.45,29.47Z" transform="translate(-0.06 -0.01)"/></svg>