<?xml version="1.0" encoding="utf-8"?>
<!-- Generator: Adobe Illustrator 24.1.0, SVG Export Plug-In . SVG Version: 6.00 Build 0)  -->
<svg version="1.1" id="Capa_1" xmlns="http://www.w3.org/2000/svg" xmlns:xlink="http://www.w3.org/1999/xlink" x="0px" y="0px"
	 viewBox="0 0 200 200" style="enable-background:new 0 0 200 200;" xml:space="preserve">
<style type="text/css">
	.st0{fill:#FAC172;}
	.st1{fill:#FFF4E2;}
</style>
<g>
	<path class="st0" d="M99.91,199.3C45.1,200.05,0.06,153.73,0.24,99.5C0.43,45.21,45.05-0.21,100.38,0
		c55.15,0.21,100.04,45.58,99.37,100.94C199.09,155.92,153.74,199.98,99.91,199.3z M60.25,65.76c0.27,1.21,0.57,2.21,0.7,3.23
		c2.05,15.69,3.99,31.4,6.15,47.07c1.19,8.65,6.62,13.27,15.31,13.3c13.74,0.06,27.47,0.09,41.21-0.01
		c11.1-0.08,19.89-6.79,22.99-17.46c1.74-5.98,3.36-12,4.87-18.04c2.82-11.27-3.71-19.52-15.39-19.53
		c-19.02-0.02-38.04,0-57.06-0.01c-1.45,0-2.9-0.15-4.72-0.24c-0.31-1.59-0.63-2.99-0.86-4.4c-0.33-1.98-0.44-4-0.92-5.94
		c-1.97-7.9-9.64-11.89-16.75-10.63c-3.72,0.66-5.31,2.93-5.09,6.49c0.2,3.25,2.19,5.22,5.72,5.67
		C57.62,65.43,58.85,65.58,60.25,65.76z M88.06,146.58c0.01-4.67-3.5-8.18-8.18-8.19c-4.36-0.01-8.17,3.74-8.15,8.02
		c0.02,4.73,3.75,8.39,8.5,8.34C84.71,154.7,88.05,151.21,88.06,146.58z M122.46,138.39c-4.41-0.02-7.76,3.52-7.75,8.2
		c0.01,4.62,3.35,8.11,7.84,8.15c4.6,0.05,8.41-3.58,8.46-8.06C131.06,141.97,127.41,138.42,122.46,138.39z"/>
	<path class="st1" d="M60.25,65.76c-1.4-0.18-2.63-0.33-3.85-0.49c-3.53-0.46-5.52-2.43-5.72-5.67c-0.22-3.56,1.38-5.83,5.09-6.49
		c7.12-1.26,14.78,2.73,16.75,10.63c0.48,1.93,0.6,3.96,0.92,5.94c0.24,1.41,0.55,2.81,0.86,4.4c1.82,0.1,3.27,0.24,4.72,0.24
		c19.02,0.02,38.04,0,57.06,0.01c11.68,0.01,18.22,8.26,15.39,19.53c-1.51,6.04-3.14,12.06-4.87,18.04
		c-3.1,10.67-11.89,17.38-22.99,17.46c-13.74,0.09-27.47,0.07-41.21,0.01c-8.69-0.04-14.12-4.65-15.31-13.3
		c-2.16-15.68-4.1-31.38-6.15-47.07C60.82,67.97,60.52,66.97,60.25,65.76z M79.38,116.44c1.62,0.19,2.55,0.39,3.48,0.39
		c13.84,0.02,27.68,0.05,41.52-0.01c4.91-0.02,8.48-2.57,9.98-7.32c1.79-5.63,3.31-11.35,4.85-17.06c1.35-5.03,0.53-6.09-4.65-6.09
		c-18.17-0.02-36.35-0.02-54.52,0.01c-1.22,0-2.44,0.27-4.27,0.49C76.98,96.82,78.16,106.48,79.38,116.44z"/>
	<path class="st1" d="M88.06,146.58c0,4.63-3.35,8.12-7.83,8.17c-4.75,0.06-8.49-3.61-8.5-8.34c-0.01-4.28,3.8-8.03,8.15-8.02
		C84.55,138.4,88.06,141.91,88.06,146.58z"/>
	<path class="st1" d="M122.46,138.39c4.94,0.03,8.6,3.58,8.54,8.3c-0.05,4.49-3.86,8.11-8.46,8.06c-4.48-0.05-7.83-3.53-7.84-8.15
		C114.7,141.92,118.06,138.37,122.46,138.39z"/>
	<path class="st0" d="M79.38,116.44c-1.22-9.96-2.4-19.61-3.62-29.6c1.84-0.22,3.05-0.48,4.27-0.49
		c18.17-0.03,36.35-0.03,54.52-0.01c5.18,0.01,6.01,1.06,4.65,6.09c-1.54,5.71-3.06,11.43-4.85,17.06c-1.51,4.75-5.07,7.3-9.98,7.32
		c-13.84,0.06-27.68,0.03-41.52,0.01C81.93,116.82,81,116.62,79.38,116.44z"/>
</g>
</svg>
